<svg width="24" height="24" viewBox="0 0 24 24" fill="none" xmlns="http://www.w3.org/2000/svg">
<path d="M10 11C10 10.4477 10.4477 10 11 10H13C13.5523 10 14 10.4477 14 11V19C14 19.5523 13.5523 20 13 20H11C10.4477 20 10 19.5523 10 19V11Z" stroke="black" stroke-width="2" stroke-linecap="round" stroke-linejoin="round"/>
<path d="M4 15C4 14.4477 4.44772 14 5 14H7C7.55228 14 8 14.4477 8 15V19C8 19.5523 7.55228 20 7 20H5C4.44772 20 4 19.5523 4 19V15Z" stroke="black" stroke-width="2" stroke-linecap="round" stroke-linejoin="round"/>
<path d="M16 7C16 6.44772 16.4477 6 17 6H19C19.5523 6 20 6.44772 20 7V19C20 19.5523 19.5523 20 19 20H17C16.4477 20 16 19.5523 16 19V7Z" stroke="black" stroke-width="2" stroke-linecap="round" stroke-linejoin="round"/>
</svg>
